<svg xmlns="http://www.w3.org/2000/svg" viewBox="0 0 64 64" id="library"><path d="M55,50V24a3,3,0,0,0-3-3H50a3,3,0,0,0-1,.18V18a3,3,0,0,0-3-3H40a3,3,0,0,0-3,3v3.18A3,3,0,0,0,36,21H32a3,3,0,0,0-1,.18V11a3,3,0,0,0-3-3H27a3,3,0,0,0-1.12.22A3,3,0,0,0,23,6H22a3,3,0,0,0-3,3v9.18A3,3,0,0,0,18,18H12a3,3,0,0,0-3,3V50a3,3,0,0,0-3,3v2a3,3,0,0,0,3,3H55a3,3,0,0,0,3-3V53A3,3,0,0,0,55,50ZM50,23h2a1,1,0,0,1,1,1V50H49V24A1,1,0,0,1,50,23ZM32,23h4a1,1,0,0,1,1,1v4a1,1,0,0,0,2,0V18a1,1,0,0,1,1-1h6a1,1,0,0,1,1,1V50H39V37a1,1,0,0,0-2,0V50H31V24A1,1,0,0,1,32,23ZM27,10h1a1,1,0,0,1,1,1V50H26V11A1,1,0,0,1,27,10ZM21,50V45h3v5Zm3-7H21V39h3ZM21,9a1,1,0,0,1,1-1h1a1,1,0,0,1,1,1V37H21V9ZM11,21a1,1,0,0,1,1-1h6a1,1,0,0,1,1,1V50H11ZM56,55a1,1,0,0,1-1,1H9a1,1,0,0,1-1-1V53a1,1,0,0,1,1-1H55a1,1,0,0,1,1,1Z" fill="#ffffff" ></path><path d="M38 34a1 1 0 0 0 1-1V32a1 1 0 0 0-2 0v1A1 1 0 0 0 38 34zM15 34a3 3 0 1 0 3 3A3 3 0 0 0 15 34zm0 4a1 1 0 1 1 1-1A1 1 0 0 1 15 38zM17 42H13a1 1 0 0 0 0 2h4a1 1 0 0 0 0-2zM17 46H13a1 1 0 0 0 0 2h4a1 1 0 0 0 0-2zM43 46a3 3 0 0 0 3-3V25a3 3 0 0 0-6 0V43A3 3 0 0 0 43 46zM42 25a1 1 0 0 1 2 0V43a1 1 0 0 1-2 0zM34 47a1 1 0 0 0 1-1V26a1 1 0 0 0-2 0V46A1 1 0 0 0 34 47z" fill="#ffffff"></path></svg>