<svg xmlns="http://www.w3.org/2000/svg" enable-background="new 0 0 512 512" viewBox="0 0 512 512" id="Library"><rect width="123.812" height="39.748" x="141.055" y="133.464" fill="#6a76cb" class="color000000 svgShape"></rect><path d="M141.043 471.722h123.87l.003-281.378h-123.87L141.043 471.722zM202.909 308.802c22.511 0 40.823 18.316 40.823 40.827 0 22.453-18.312 40.719-40.823 40.719-22.453 0-40.719-18.266-40.719-40.719C162.19 327.118 180.456 308.802 202.909 308.802zM61.906 373.216c13.067 0 23.695-10.582 23.695-23.586 0-13.067-10.628-23.695-23.695-23.695-13.004 0-23.586 10.628-23.586 23.695C38.32 362.634 48.902 373.216 61.906 373.216z" fill="#6a76cb" class="color000000 svgShape"></path><path d="M202.909,373.216c13.063,0,23.691-10.582,23.691-23.586c0-13.067-10.628-23.695-23.691-23.695c-13.004,0-23.586,10.628-23.586,23.695C179.323,362.634,189.905,373.216,202.909,373.216z" fill="#6a76cb" class="color000000 svgShape"></path><rect width="123.871" height="76.054" x="141.046" y="40.278" fill="#6a76cb" class="color000000 svgShape"></rect><rect width="123.87" height="76.054" x=".023" y="40.278" fill="#6a76cb" class="color000000 svgShape"></rect><rect width="123.812" height="39.748" x=".052" y="133.464" fill="#6a76cb" class="color000000 svgShape"></rect><path d="M0.019,471.722h123.87l0.003-281.378H0.022L0.019,471.722z M61.906,308.802c22.511,0,40.827,18.316,40.827,40.827c0,22.453-18.316,40.719-40.827,40.719c-22.453,0-40.719-18.266-40.719-40.719C21.188,327.118,39.453,308.802,61.906,308.802z" fill="#6a76cb" class="color000000 svgShape"></path><rect width="117.408" height="37.162" x="316.22" y="142.917" transform="rotate(-15.377 374.846 161.508)" fill="#6a76cb" class="color000000 svgShape"></rect><rect width="117.482" height="71.817" x="297.208" y="56.525" transform="rotate(-15.368 356.014 92.444)" fill="#6a76cb" class="color000000 svgShape"></rect><path d="M441.053,180.325l-113.33,31.18l71.013,258.27l113.245-31.181L441.053,180.325z M424.435,381.458c-21.586,0-39.147-17.646-39.147-39.233c0-21.758,17.561-39.404,39.147-39.404c21.758,0,39.405,17.646,39.405,39.404C463.839,363.812,446.193,381.458,424.435,381.458z" fill="#6a76cb" class="color000000 svgShape"></path><path d="M424.511,365.762c13.063,0,23.691-10.582,23.691-23.586c0-13.067-10.628-23.695-23.691-23.695c-13.004,0-23.586,10.628-23.586,23.695C400.925,355.18,411.507,365.762,424.511,365.762z" fill="#6a76cb" class="color000000 svgShape"></path></svg>