<svg width="124" height="50" viewBox="0 0 124 50" fill="none" xmlns="http://www.w3.org/2000/svg">
<g filter="url(#filter0_d_1_3)">
<path d="M8.65341 40L14.4489 5.09091H19.7159L14.6705 35.4659H30.4886L29.7386 40H8.65341ZM35.3381 40L39.7017 13.8182H44.7983L40.4347 40H35.3381ZM43.3153 9.72727C42.429 9.72727 41.679 9.43182 41.0653 8.84091C40.4631 8.23864 40.1847 7.52273 40.2301 6.69318C40.2756 5.85227 40.6278 5.13636 41.2869 4.54545C41.946 3.94318 42.7131 3.64204 43.5881 3.64204C44.4744 3.64204 45.2188 3.94318 45.821 4.54545C46.4233 5.13636 46.7074 5.85227 46.6733 6.69318C46.6278 7.52273 46.2756 8.23864 45.6165 8.84091C44.9688 9.43182 44.2017 9.72727 43.3153 9.72727ZM47.7003 40L53.4957 5.09091H58.5923L56.4616 18.0625H56.7685C57.1548 17.517 57.6832 16.8864 58.3537 16.1705C59.0355 15.4545 59.9162 14.8295 60.9957 14.2955C62.0753 13.75 63.4276 13.4773 65.0526 13.4773C67.1662 13.4773 68.9616 14.0114 70.4389 15.0795C71.9162 16.1477 72.9616 17.6875 73.5753 19.6989C74.1889 21.7102 74.2628 24.1307 73.7969 26.9602C73.331 29.7898 72.456 32.2159 71.1719 34.2386C69.8991 36.25 68.348 37.8011 66.5185 38.892C64.6889 39.9716 62.7173 40.5114 60.6037 40.5114C59.0128 40.5114 57.7571 40.2443 56.8366 39.7102C55.9276 39.1761 55.2457 38.5511 54.7912 37.8352C54.348 37.1193 54.0128 36.483 53.7855 35.9261H53.3594L52.6776 40H47.7003ZM54.8764 26.9091C54.581 28.75 54.581 30.3636 54.8764 31.75C55.1832 33.1364 55.7798 34.2216 56.6662 35.0057C57.5639 35.7784 58.7401 36.1648 60.1946 36.1648C61.7173 36.1648 63.0582 35.7614 64.2173 34.9545C65.3764 34.1364 66.331 33.0284 67.081 31.6307C67.831 30.233 68.3537 28.6591 68.6491 26.9091C68.9219 25.1818 68.9162 23.6307 68.6321 22.2557C68.348 20.8807 67.7571 19.7955 66.8594 19C65.973 18.2045 64.7628 17.8068 63.2287 17.8068C61.7514 17.8068 60.4389 18.1875 59.2912 18.9489C58.1435 19.7102 57.1946 20.7727 56.4446 22.1364C55.6946 23.5 55.1719 25.0909 54.8764 26.9091ZM77.3381 40L81.7017 13.8182H86.6278L85.929 17.9773H86.2017C86.9063 16.5682 87.9347 15.4602 89.2869 14.6534C90.6392 13.8352 92.0824 13.4261 93.6165 13.4261C93.946 13.4261 94.321 13.4375 94.7415 13.4602C95.1619 13.4716 95.5028 13.5 95.7642 13.5455L94.946 18.4205C94.7528 18.3636 94.4006 18.3011 93.8892 18.233C93.3778 18.1534 92.8494 18.1136 92.304 18.1136C91.1108 18.1136 90.0028 18.3693 88.9801 18.8807C87.9574 19.3807 87.0994 20.0795 86.4062 20.9773C85.7131 21.8636 85.2642 22.875 85.0597 24.0114L82.4347 40H77.3381ZM103.17 40.5795C101.511 40.5795 100.063 40.2727 98.8239 39.6591C97.5852 39.0341 96.6705 38.1307 96.0795 36.9489C95.4886 35.767 95.3352 34.3182 95.6193 32.6023C95.8693 31.125 96.358 29.9091 97.0852 28.9545C97.8239 28 98.7216 27.2443 99.7784 26.6875C100.835 26.1193 101.983 25.6932 103.222 25.4091C104.46 25.125 105.71 24.9148 106.972 24.7784C108.563 24.5966 109.852 24.4432 110.841 24.3182C111.841 24.1932 112.591 24 113.091 23.7386C113.591 23.4659 113.892 23.0227 113.994 22.4091V22.2898C114.233 20.8125 114.017 19.6648 113.347 18.8466C112.688 18.017 111.54 17.6023 109.903 17.6023C108.199 17.6023 106.767 17.9773 105.608 18.7273C104.46 19.4773 103.614 20.3182 103.068 21.25L98.5 20.1591C99.3182 18.5682 100.358 17.2841 101.619 16.3068C102.892 15.3182 104.284 14.6023 105.795 14.1591C107.307 13.7045 108.852 13.4773 110.432 13.4773C111.477 13.4773 112.562 13.6023 113.688 13.8523C114.812 14.0909 115.835 14.5341 116.756 15.1818C117.688 15.8295 118.381 16.7557 118.835 17.9602C119.29 19.1534 119.358 20.7045 119.04 22.6136L116.159 40H111.182L111.795 36.4205H111.591C111.159 37.0795 110.557 37.7273 109.784 38.3636C109.023 39 108.091 39.5284 106.989 39.9489C105.886 40.3693 104.614 40.5795 103.17 40.5795ZM104.909 36.4886C106.33 36.4886 107.585 36.2102 108.676 35.6534C109.778 35.0966 110.67 34.3693 111.352 33.4716C112.034 32.5625 112.46 31.5909 112.631 30.5568L113.193 27.1818C112.977 27.3636 112.597 27.5284 112.051 27.6761C111.517 27.8239 110.915 27.9545 110.244 28.0682C109.574 28.1818 108.915 28.2784 108.267 28.358C107.631 28.4375 107.102 28.5114 106.682 28.5795C105.682 28.7045 104.744 28.9148 103.869 29.2102C103.006 29.5057 102.284 29.9318 101.705 30.4886C101.125 31.0341 100.761 31.7614 100.614 32.6705C100.409 33.9318 100.71 34.8864 101.517 35.5341C102.335 36.1705 103.466 36.4886 104.909 36.4886Z" fill="white"/>
<path d="M8.65341 40L7.66691 39.8362L7.47371 41H8.65341V40ZM14.4489 5.09091V4.09091H13.6012L13.4624 4.92713L14.4489 5.09091ZM19.7159 5.09091L20.7024 5.25477L20.8957 4.09091H19.7159V5.09091ZM14.6705 35.4659L13.684 35.302L13.4906 36.4659H14.6705V35.4659ZM30.4886 35.4659L31.4752 35.6291L31.6676 34.4659H30.4886V35.4659ZM29.7386 40V41H30.5868L30.7252 40.1632L29.7386 40ZM9.63991 40.1638L15.4354 5.25468L13.4624 4.92713L7.66691 39.8362L9.63991 40.1638ZM14.4489 6.09091H19.7159V4.09091H14.4489V6.09091ZM18.7294 4.92705L13.684 35.302L15.6569 35.6298L20.7024 5.25477L18.7294 4.92705ZM14.6705 36.4659H30.4886V34.4659H14.6705V36.4659ZM29.502 35.3027L28.752 39.8368L30.7252 40.1632L31.4752 35.6291L29.502 35.3027ZM29.7386 39H8.65341V41H29.7386V39ZM35.3381 40L34.3517 39.8356L34.1576 41H35.3381V40ZM39.7017 13.8182V12.8182H38.8546L38.7153 13.6538L39.7017 13.8182ZM44.7983 13.8182L45.7847 13.9826L45.9788 12.8182H44.7983V13.8182ZM40.4347 40V41H41.2818L41.4211 40.1644L40.4347 40ZM41.0653 8.84091L40.3582 9.54802L40.3649 9.55469L40.3717 9.56123L41.0653 8.84091ZM40.2301 6.69318L41.2286 6.74789L41.2287 6.74716L40.2301 6.69318ZM41.2869 4.54545L41.9545 5.29006L41.9615 5.28366L41.2869 4.54545ZM45.821 4.54545L45.1139 5.25259L45.1207 5.25926L45.821 4.54545ZM46.6733 6.69318L47.6718 6.74789L47.6722 6.74079L47.6725 6.73369L46.6733 6.69318ZM45.6165 8.84091L46.2904 9.57967L46.291 9.57912L45.6165 8.84091ZM36.3245 40.1644L40.6881 13.9826L38.7153 13.6538L34.3517 39.8356L36.3245 40.1644ZM39.7017 14.8182H44.7983V12.8182H39.7017V14.8182ZM43.8119 13.6538L39.4483 39.8356L41.4211 40.1644L45.7847 13.9826L43.8119 13.6538ZM40.4347 39H35.3381V41H40.4347V39ZM43.3153 8.72727C42.6761 8.72727 42.1781 8.52417 41.759 8.12059L40.3717 9.56123C41.1799 10.3395 42.1819 10.7273 43.3153 10.7273V8.72727ZM41.7724 8.1338C41.3654 7.72674 41.1992 7.28557 41.2286 6.74789L39.2316 6.63847C39.1702 7.75989 39.5608 8.75054 40.3582 9.54802L41.7724 8.1338ZM41.2287 6.74716C41.259 6.18595 41.4817 5.71385 41.9545 5.29002L40.6194 3.80088C39.7739 4.55887 39.2921 5.51859 39.2316 6.63921L41.2287 6.74716ZM41.9615 5.28366C42.4405 4.846 42.9683 4.64204 43.5881 4.64204V2.64204C42.4578 2.64204 41.4516 3.04036 40.6124 3.80724L41.9615 5.28366ZM43.5881 4.64204C44.2212 4.64204 44.7075 4.84616 45.1139 5.25256L46.5281 3.83835C45.73 3.0402 44.7276 2.64204 43.5881 2.64204V4.64204ZM45.1207 5.25926C45.5218 5.65283 45.6967 6.09496 45.6741 6.65267L47.6725 6.73369C47.718 5.60959 47.3248 4.61989 46.5214 3.83164L45.1207 5.25926ZM45.6748 6.63847C45.6448 7.1858 45.4236 7.66252 44.9419 8.1027L46.291 9.57912C47.1275 8.81475 47.6109 7.85966 47.6718 6.74789L45.6748 6.63847ZM44.9425 8.10214C44.4812 8.52296 43.9554 8.72727 43.3153 8.72727V10.7273C44.448 10.7273 45.4563 10.3407 46.2904 9.57967L44.9425 8.10214ZM47.7003 40L46.7138 39.8362L46.5206 41H47.7003V40ZM53.4957 5.09091V4.09091H52.6481L52.5092 4.92713L53.4957 5.09091ZM58.5923 5.09091L59.5791 5.25299L59.77 4.09091H58.5923V5.09091ZM56.4616 18.0625L55.4749 17.9004L55.284 19.0625H56.4616V18.0625ZM56.7685 18.0625V19.0625H57.2856L57.5845 18.6405L56.7685 18.0625ZM58.3537 16.1705L57.6295 15.4808L57.6238 15.4869L58.3537 16.1705ZM60.9957 14.2955L61.4392 15.1918L61.4467 15.188L60.9957 14.2955ZM70.4389 15.0795L69.853 15.8899L69.853 15.8899L70.4389 15.0795ZM73.5753 19.6989L74.5318 19.4071L74.5318 19.4071L73.5753 19.6989ZM73.7969 26.9602L72.8102 26.7978L72.8102 26.7978L73.7969 26.9602ZM71.1719 34.2386L70.3276 33.7027L70.3268 33.7039L71.1719 34.2386ZM66.5185 38.892L67.0267 39.7533L67.0306 39.7509L66.5185 38.892ZM56.8366 39.7102L56.3301 40.5725L56.3348 40.5752L56.8366 39.7102ZM54.7912 37.8352L53.9409 38.3616L53.947 38.3712L54.7912 37.8352ZM53.7855 35.9261L54.7114 35.5482L54.4574 34.9261H53.7855V35.9261ZM53.3594 35.9261V34.9261H52.5128L52.3731 35.7611L53.3594 35.9261ZM52.6776 40V41H53.5241L53.6638 40.1651L52.6776 40ZM54.8764 26.9091L53.8894 26.7487L53.8891 26.7506L54.8764 26.9091ZM54.8764 31.75L53.8984 31.9584L53.9 31.9661L54.8764 31.75ZM56.6662 35.0057L56.0036 35.7547L56.0138 35.7636L56.6662 35.0057ZM64.2173 34.9545L64.7886 35.7753L64.794 35.7715L64.2173 34.9545ZM67.081 31.6307L67.9621 32.1035L67.9621 32.1035L67.081 31.6307ZM68.6491 26.9091L69.6352 27.0756L69.6369 27.0651L68.6491 26.9091ZM66.8594 19L66.1915 19.7443L66.1962 19.7485L66.8594 19ZM59.2912 18.9489L59.844 19.7822L59.844 19.7822L59.2912 18.9489ZM56.4446 22.1364L57.3208 22.6183L57.3208 22.6183L56.4446 22.1364ZM48.6868 40.1638L54.4822 5.25468L52.5092 4.92713L46.7138 39.8362L48.6868 40.1638ZM53.4957 6.09091H58.5923V4.09091H53.4957V6.09091ZM57.6056 4.92882L55.4749 17.9004L57.4484 18.2246L59.5791 5.25299L57.6056 4.92882ZM56.4616 19.0625H56.7685V17.0625H56.4616V19.0625ZM57.5845 18.6405C57.9355 18.1449 58.4313 17.5505 59.0836 16.854L57.6238 15.4869C56.9352 16.2222 56.3741 16.8892 55.9524 17.4845L57.5845 18.6405ZM59.0778 16.8601C59.6634 16.2452 60.4424 15.6849 61.4392 15.1918L60.5523 13.3991C59.39 13.9742 58.4076 14.6639 57.6296 15.4808L59.0778 16.8601ZM61.4467 15.188C62.3468 14.7332 63.5329 14.4773 65.0526 14.4773V12.4773C63.3222 12.4773 61.8037 12.7668 60.5448 13.4029L61.4467 15.188ZM65.0526 14.4773C66.9905 14.4773 68.5723 14.9639 69.853 15.8899L71.0249 14.2692C69.351 13.0588 67.3419 12.4773 65.0526 12.4773V14.4773ZM69.853 15.8899C71.1271 16.8112 72.0586 18.1546 72.6188 19.9907L74.5318 19.4071C73.8647 17.2204 72.7052 15.4842 71.0249 14.2692L69.853 15.8899ZM72.6188 19.9907C73.1743 21.8115 73.2597 24.0676 72.8102 26.7978L74.7836 27.1227C75.2659 24.1937 75.2035 21.609 74.5318 19.4071L72.6188 19.9907ZM72.8102 26.7978C72.3619 29.5201 71.5268 31.8137 70.3276 33.7027L72.0161 34.7746C73.3851 32.6182 74.3 30.0594 74.7836 27.1227L72.8102 26.7978ZM70.3268 33.7039C69.1281 35.5984 67.6858 37.0317 66.0063 38.0331L67.0306 39.7509C69.0102 38.5706 70.6702 36.9016 72.0169 34.7733L70.3268 33.7039ZM66.0103 38.0308C64.3339 39.02 62.5376 39.5114 60.6037 39.5114V41.5114C62.897 41.5114 65.044 40.9232 67.0267 39.7533L66.0103 38.0308ZM60.6037 39.5114C59.1082 39.5114 58.0492 39.2576 57.3385 38.8453L56.3348 40.5752C57.465 41.231 58.9174 41.5114 60.6037 41.5114V39.5114ZM57.3432 38.848C56.5383 38.3751 55.9867 37.8525 55.6354 37.2992L53.947 38.3712C54.5048 39.2498 55.3168 39.9771 56.3301 40.5724L57.3432 38.848ZM55.6415 37.3089C55.2169 36.6231 54.9112 36.0377 54.7114 35.5482L52.8597 36.304C53.1144 36.9282 53.4791 37.6155 53.9409 38.3616L55.6415 37.3089ZM53.7855 34.9261H53.3594V36.9261H53.7855V34.9261ZM52.3731 35.7611L51.6913 39.8349L53.6638 40.1651L54.3457 36.0912L52.3731 35.7611ZM52.6776 39H47.7003V41H52.6776V39ZM53.8891 26.7506C53.5799 28.677 53.5705 30.42 53.8984 31.9584L55.8545 31.5416C55.5914 30.3073 55.582 28.823 55.8638 27.0676L53.8891 26.7506ZM53.9 31.9661C54.2432 33.5165 54.9294 34.8044 56.0036 35.7547L57.3288 34.2567C56.6303 33.6388 56.1233 32.7562 55.8528 31.5339L53.9 31.9661ZM56.0138 35.7636C57.1318 36.7259 58.5574 37.1648 60.1946 37.1648V35.1648C58.9228 35.1648 57.996 34.8309 57.3186 34.2478L56.0138 35.7636ZM60.1946 37.1648C61.9048 37.1648 63.4486 36.7081 64.7886 35.7753L63.646 34.1338C62.6679 34.8147 61.5299 35.1648 60.1946 35.1648V37.1648ZM64.794 35.7715C66.0942 34.8537 67.1475 33.6217 67.9621 32.1035L66.1998 31.1579C65.5145 32.4351 64.6586 33.419 63.6406 34.1376L64.794 35.7715ZM67.9621 32.1035C68.7692 30.5994 69.3238 28.9201 69.6352 27.0756L67.6631 26.7426C67.3836 28.3981 66.8927 29.8665 66.1998 31.1579L67.9621 32.1035ZM69.6369 27.0651C69.924 25.2469 69.925 23.5713 69.6114 22.0533L67.6528 22.458C67.9073 23.6901 67.9198 25.1167 67.6614 26.7531L69.6369 27.0651ZM69.6114 22.0533C69.2914 20.5043 68.6082 19.2135 67.5226 18.2515L66.1962 19.7485C66.906 20.3774 67.4047 21.2571 67.6528 22.458L69.6114 22.0533ZM67.5273 18.2558C66.4095 17.2526 64.9363 16.8068 63.2287 16.8068V18.8068C64.5893 18.8068 65.5366 19.1565 66.1915 19.7442L67.5273 18.2558ZM63.2287 16.8068C61.5697 16.8068 60.062 17.2375 58.7384 18.1155L59.844 19.7822C60.8158 19.1375 61.9331 18.8068 63.2287 18.8068V16.8068ZM58.7384 18.1155C57.4394 18.9772 56.386 20.1679 55.5684 21.6544L57.3208 22.6183C58.0032 21.3776 58.8475 20.4432 59.844 19.7822L58.7384 18.1155ZM55.5684 21.6544C54.7543 23.1346 54.1999 24.838 53.8894 26.7487L55.8635 27.0695C56.1439 25.3438 56.6349 23.8654 57.3208 22.6183L55.5684 21.6544ZM77.3381 40L76.3517 39.8356L76.1576 41H77.3381V40ZM81.7017 13.8182V12.8182H80.8546L80.7153 13.6538L81.7017 13.8182ZM86.6278 13.8182L87.614 13.9839L87.8099 12.8182H86.6278V13.8182ZM85.929 17.9773L84.9428 17.8116L84.7469 18.9773H85.929V17.9773ZM86.2017 17.9773V18.9773H86.8197L87.0961 18.4245L86.2017 17.9773ZM89.2869 14.6534L89.7993 15.5122L89.8046 15.509L89.2869 14.6534ZM94.7415 13.4602L94.6875 14.4588L94.701 14.4595L94.7145 14.4599L94.7415 13.4602ZM95.7642 13.5455L96.7504 13.711L96.915 12.7306L95.9355 12.5602L95.7642 13.5455ZM94.946 18.4205L94.6639 19.3798L95.7456 19.698L95.9322 18.586L94.946 18.4205ZM93.8892 18.233L93.7355 19.2211L93.7463 19.2227L93.757 19.2242L93.8892 18.233ZM88.9801 18.8807L89.4193 19.7791L89.4273 19.7751L88.9801 18.8807ZM86.4062 20.9773L87.194 21.5933L87.1978 21.5884L86.4062 20.9773ZM85.0597 24.0114L84.0755 23.8342L84.0741 23.8418L84.0729 23.8494L85.0597 24.0114ZM82.4347 40V41H83.2839L83.4214 40.162L82.4347 40ZM78.3245 40.1644L82.6881 13.9826L80.7153 13.6538L76.3517 39.8356L78.3245 40.1644ZM81.7017 14.8182H86.6278V12.8182H81.7017V14.8182ZM85.6417 13.6525L84.9428 17.8116L86.9152 18.143L87.614 13.9839L85.6417 13.6525ZM85.929 18.9773H86.2017V16.9773H85.929V18.9773ZM87.0961 18.4245C87.7153 17.1862 88.6112 16.2211 89.7993 15.5122L88.7746 13.7946C87.2582 14.6994 86.0972 15.9502 85.3073 17.5301L87.0961 18.4245ZM89.8046 15.509C91.0057 14.7823 92.2706 14.4261 93.6165 14.4261V12.4261C91.8942 12.4261 90.2727 12.8882 88.7693 13.7978L89.8046 15.509ZM93.6165 14.4261C93.9239 14.4261 94.2804 14.4368 94.6875 14.4588L94.7955 12.4617C94.3617 12.4382 93.9682 12.4261 93.6165 12.4261V14.4261ZM94.7145 14.4599C95.111 14.4706 95.3984 14.4969 95.5929 14.5307L95.9355 12.5602C95.6073 12.5031 95.2129 12.4726 94.7685 12.4606L94.7145 14.4599ZM94.778 13.3799L93.9598 18.2549L95.9322 18.586L96.7504 13.711L94.778 13.3799ZM95.2282 17.4611C94.9521 17.3799 94.529 17.3094 94.0214 17.2417L93.757 19.2242C94.2721 19.2929 94.5535 19.3474 94.6639 19.3798L95.2282 17.4611ZM94.0429 17.2448C93.478 17.157 92.8981 17.1136 92.304 17.1136V19.1136C92.8007 19.1136 93.2776 19.1498 93.7355 19.2211L94.0429 17.2448ZM92.304 17.1136C90.9625 17.1136 89.7006 17.4024 88.5329 17.9863L89.4273 19.7751C90.3051 19.3362 91.2591 19.1136 92.304 19.1136V17.1136ZM88.5409 17.9823C87.3808 18.5495 86.4021 19.3464 85.6147 20.3661L87.1978 21.5884C87.7967 20.8127 88.534 20.2119 89.4193 19.7791L88.5409 17.9823ZM85.6185 20.3612C84.8225 21.3792 84.3081 22.5421 84.0755 23.8342L86.0438 24.1885C86.2204 23.2079 86.6037 22.3481 87.194 21.5933L85.6185 20.3612ZM84.0729 23.8494L81.4479 39.838L83.4214 40.162L86.0464 24.1734L84.0729 23.8494ZM82.4347 39H77.3381V41H82.4347V39ZM98.8239 39.6591L98.3734 40.5519L98.3799 40.5552L98.8239 39.6591ZM96.0795 36.9489L95.1851 37.3961L95.1851 37.3961L96.0795 36.9489ZM95.6193 32.6023L94.6333 32.4354L94.6327 32.4389L95.6193 32.6023ZM97.0852 28.9545L96.2943 28.3425L96.2898 28.3485L97.0852 28.9545ZM99.7784 26.6875L100.245 27.5722L100.252 27.5683L99.7784 26.6875ZM106.972 24.7784L107.079 25.7726L107.085 25.7719L106.972 24.7784ZM110.841 24.3182L110.717 23.3259L110.715 23.3261L110.841 24.3182ZM113.091 23.7386L113.554 24.6249L113.562 24.6208L113.57 24.6165L113.091 23.7386ZM113.994 22.4091L114.981 22.5735L114.994 22.4919V22.4091H113.994ZM113.994 22.2898L113.007 22.1303L112.994 22.2095V22.2898H113.994ZM113.347 18.8466L112.564 19.4687L112.568 19.4746L112.573 19.4804L113.347 18.8466ZM105.608 18.7273L105.065 17.8877L105.061 17.8902L105.608 18.7273ZM103.068 21.25L102.836 22.2227L103.557 22.3948L103.931 21.7552L103.068 21.25ZM98.5 20.1591L97.6107 19.7017L97.0276 20.8356L98.2677 21.1317L98.5 20.1591ZM101.619 16.3068L102.232 17.0973L102.233 17.0965L101.619 16.3068ZM105.795 14.1591L106.077 15.1187L106.083 15.1167L105.795 14.1591ZM113.688 13.8523L113.471 14.8285L113.48 14.8305L113.688 13.8523ZM116.756 15.1818L116.18 15.9996L116.185 16.0029L116.756 15.1818ZM118.835 17.9602L117.9 18.3133L117.901 18.3162L118.835 17.9602ZM119.04 22.6136L118.053 22.4492L118.053 22.4502L119.04 22.6136ZM116.159 40V41H117.007L117.146 40.1635L116.159 40ZM111.182 40L110.196 39.831L109.996 41H111.182V40ZM111.795 36.4205L112.781 36.5894L112.981 35.4205H111.795V36.4205ZM111.591 36.4205V35.4205H111.051L110.754 35.8724L111.591 36.4205ZM109.784 38.3636L109.148 37.5917L109.143 37.5964L109.784 38.3636ZM106.989 39.9489L106.632 39.0145L106.632 39.0145L106.989 39.9489ZM108.676 35.6534L108.225 34.7608L108.222 34.7627L108.676 35.6534ZM111.352 33.4716L112.149 34.0764L112.152 34.0716L111.352 33.4716ZM112.631 30.5568L111.644 30.3924L111.644 30.3942L112.631 30.5568ZM113.193 27.1818L114.18 27.3462L114.626 24.6679L112.549 26.4169L113.193 27.1818ZM112.051 27.6761L111.79 26.7109L111.785 26.7123L112.051 27.6761ZM110.244 28.0682L110.411 29.0541L110.411 29.0541L110.244 28.0682ZM108.267 28.358L108.145 27.3654L108.143 27.3657L108.267 28.358ZM106.682 28.5795L106.806 29.5718L106.824 29.5696L106.842 29.5667L106.682 28.5795ZM103.869 29.2102L103.549 28.2628L103.546 28.2641L103.869 29.2102ZM101.705 30.4886L102.39 31.2169L102.397 31.2097L101.705 30.4886ZM100.614 32.6705L99.6266 32.5101L99.6265 32.5104L100.614 32.6705ZM101.517 35.5341L100.891 36.3139L100.897 36.3187L100.903 36.3234L101.517 35.5341ZM103.17 39.5795C101.635 39.5795 100.343 39.2959 99.2678 38.763L98.3799 40.5552C99.7815 41.2495 101.388 41.5795 103.17 41.5795V39.5795ZM99.2744 38.7663C98.2175 38.233 97.4637 37.481 96.974 36.5016L95.1851 37.3961C95.8772 38.7803 96.9529 39.8351 98.3734 40.5519L99.2744 38.7663ZM96.974 36.5016C96.5033 35.5603 96.3454 34.3388 96.6059 32.7656L94.6327 32.4389C94.325 34.2976 94.474 35.9738 95.1851 37.3961L96.974 36.5016ZM96.6053 32.7691C96.8349 31.4126 97.2729 30.3582 97.8807 29.5606L96.2898 28.3485C95.443 29.46 94.9038 30.8374 94.6333 32.4354L96.6053 32.7691ZM97.8761 29.5665C98.5282 28.7238 99.3156 28.0617 100.245 27.5722L99.3123 25.8028C98.1276 26.427 97.1196 27.2762 96.2944 28.3426L97.8761 29.5665ZM100.252 27.5683C101.225 27.0449 102.289 26.6491 103.445 26.3838L102.998 24.4344C101.677 24.7373 100.445 25.1938 99.3049 25.8067L100.252 27.5683ZM103.445 26.3838C104.646 26.1085 105.857 25.9048 107.079 25.7726L106.864 23.7842C105.564 23.9248 104.275 24.1415 102.998 24.4344L103.445 26.3838ZM107.085 25.7719C108.678 25.5899 109.972 25.436 110.966 25.3103L110.715 23.3261C109.732 23.4504 108.447 23.6033 106.858 23.7849L107.085 25.7719ZM110.965 25.3105C112.005 25.1804 112.896 24.969 113.554 24.6249L112.628 22.8524C112.286 23.031 111.676 23.206 110.717 23.3259L110.965 25.3105ZM113.57 24.6165C114.367 24.1817 114.833 23.4582 114.981 22.5735L113.008 22.2447C112.951 22.5872 112.815 22.7501 112.612 22.8607L113.57 24.6165ZM114.994 22.4091V22.2898H112.994V22.4091H114.994ZM114.982 22.4492C115.246 20.8101 115.037 19.3323 114.12 18.2128L112.573 19.4804C112.997 19.9972 113.22 20.8149 113.007 22.1303L114.982 22.4492ZM114.13 18.2245C113.196 17.0498 111.676 16.6023 109.903 16.6023V18.6023C111.403 18.6023 112.179 18.9843 112.564 19.4687L114.13 18.2245ZM109.903 16.6023C108.051 16.6023 106.42 17.0108 105.065 17.8877L106.151 19.5668C107.114 18.9437 108.346 18.6023 109.903 18.6023V16.6023ZM105.061 17.8902C103.818 18.7026 102.847 19.6483 102.205 20.7448L103.931 21.7552C104.38 20.9881 105.103 20.2519 106.155 19.5644L105.061 17.8902ZM103.3 20.2773L98.7323 19.1864L98.2677 21.1317L102.836 22.2227L103.3 20.2773ZM99.3893 20.6164C100.149 19.1396 101.099 17.9748 102.232 17.0973L101.007 15.5163C99.6167 16.5934 98.4876 17.9967 97.6107 19.7017L99.3893 20.6164ZM102.233 17.0965C103.409 16.183 104.689 15.5257 106.077 15.1187L105.514 13.1995C103.88 13.6788 102.375 14.4533 101.006 15.5171L102.233 17.0965ZM106.083 15.1167C107.501 14.6903 108.95 14.4773 110.432 14.4773V12.4773C108.755 12.4773 107.112 12.7188 105.507 13.2015L106.083 15.1167ZM110.432 14.4773C111.397 14.4773 112.41 14.5927 113.471 14.8285L113.904 12.8761C112.715 12.6119 111.557 12.4773 110.432 12.4773V14.4773ZM113.48 14.8305C114.476 15.0417 115.373 15.4314 116.18 15.9996L117.331 14.364C116.298 13.6368 115.149 13.1401 113.895 12.874L113.48 14.8305ZM116.185 16.0029C116.929 16.52 117.507 17.2717 117.9 18.3133L119.771 17.6072C119.255 16.2397 118.446 15.1391 117.326 14.3607L116.185 16.0029ZM117.901 18.3162C118.268 19.2794 118.356 20.6318 118.053 22.4492L120.026 22.778C120.36 20.7773 120.312 19.0275 119.77 17.6042L117.901 18.3162ZM118.053 22.4502L115.173 39.8365L117.146 40.1635L120.026 22.7771L118.053 22.4502ZM116.159 39H111.182V41H116.159V39ZM112.167 40.169L112.781 36.5894L110.81 36.2515L110.196 39.831L112.167 40.169ZM111.795 35.4205H111.591V37.4205H111.795V35.4205ZM110.754 35.8724C110.39 36.428 109.863 37.003 109.148 37.5917L110.42 39.1356C111.25 38.4516 111.928 37.7311 112.427 36.9685L110.754 35.8724ZM109.143 37.5964C108.481 38.1496 107.65 38.6263 106.632 39.0145L107.345 40.8832C108.532 40.4305 109.565 39.8504 110.425 39.1309L109.143 37.5964ZM106.632 39.0145C105.666 39.3831 104.518 39.5795 103.17 39.5795V41.5795C104.709 41.5795 106.107 41.3556 107.345 40.8832L106.632 39.0145ZM104.909 37.4886C106.462 37.4886 107.878 37.1834 109.131 36.5441L108.222 34.7627C107.292 35.237 106.197 35.4886 104.909 35.4886V37.4886ZM109.127 36.546C110.352 35.9274 111.366 35.1062 112.149 34.0764L110.556 32.8668C109.974 33.6324 109.205 34.2658 108.225 34.7608L109.127 36.546ZM112.152 34.0716C112.922 33.0449 113.419 31.9254 113.617 30.7195L111.644 30.3942C111.502 31.2565 111.146 32.0801 110.552 32.8716L112.152 34.0716ZM113.617 30.7212L114.18 27.3462L112.207 27.0174L111.644 30.3924L113.617 30.7212ZM112.549 26.4169C112.509 26.4509 112.308 26.5706 111.79 26.7109L112.313 28.6414C112.885 28.4862 113.446 28.2764 113.837 27.9467L112.549 26.4169ZM111.785 26.7123C111.29 26.8492 110.721 26.9731 110.077 27.0822L110.411 29.0541C111.108 28.936 111.745 28.7985 112.318 28.6399L111.785 26.7123ZM110.077 27.0822C109.421 27.1934 108.777 27.2878 108.145 27.3654L108.389 29.3505C109.052 29.269 109.727 29.1702 110.411 29.0541L110.077 27.0822ZM108.143 27.3657C107.5 27.4461 106.959 27.5216 106.522 27.5924L106.842 29.5667C107.246 29.5011 107.761 29.4289 108.391 29.3502L108.143 27.3657ZM106.558 27.5873C105.497 27.7198 104.493 27.944 103.549 28.2628L104.189 30.1577C104.995 29.8855 105.867 29.6892 106.806 29.5718L106.558 27.5873ZM103.546 28.2641C102.563 28.6003 101.71 29.0968 101.012 29.7675L102.397 31.2097C102.858 30.7669 103.449 30.4111 104.193 30.1564L103.546 28.2641ZM101.019 29.7604C100.255 30.4798 99.8038 31.4193 99.6266 32.5101L101.601 32.8309C101.719 32.1034 101.995 31.5884 102.39 31.2168L101.019 29.7604ZM99.6265 32.5104C99.3802 34.0291 99.7337 35.3848 100.891 36.3139L102.143 34.7543C101.687 34.388 101.438 33.8345 101.601 32.8305L99.6265 32.5104ZM100.903 36.3234C101.954 37.141 103.329 37.4886 104.909 37.4886V35.4886C103.603 35.4886 102.716 35.1999 102.131 34.7447L100.903 36.3234Z" fill="#6A76CB"/>
</g>
<defs>
<filter id="filter0_d_1_3" x="0.653412" y="0.642044" width="122.864" height="48.9375" filterUnits="userSpaceOnUse" color-interpolation-filters="sRGB">
<feFlood flood-opacity="0" result="BackgroundImageFix"/>
<feColorMatrix in="SourceAlpha" type="matrix" values="0 0 0 0 0 0 0 0 0 0 0 0 0 0 0 0 0 0 127 0" result="hardAlpha"/>
<feOffset dx="-2" dy="3"/>
<feGaussianBlur stdDeviation="3"/>
<feComposite in2="hardAlpha" operator="out"/>
<feColorMatrix type="matrix" values="0 0 0 0 0.415686 0 0 0 0 0.462745 0 0 0 0 0.796078 0 0 0 1 0"/>
<feBlend mode="normal" in2="BackgroundImageFix" result="effect1_dropShadow_1_3"/>
<feBlend mode="normal" in="SourceGraphic" in2="effect1_dropShadow_1_3" result="shape"/>
</filter>
</defs>
</svg>
